<svg xmlns="http://www.w3.org/2000/svg" xmlns:xlink="http://www.w3.org/1999/xlink" x="0px" y="0px"
	 viewBox="0 0 502 104.7" style="enable-background:new 0 0 502 104.7;" xml:space="preserve">
<g>
	<path d="M70.2,101c-5.9-0.1-11.6-2.3-16.1-6.1c-3.2-2.7-6.3-5.6-9.2-8.7c-2.9,3.1-6,6-9.2,8.7c-4.5,3.8-10.2,6-16.1,6.1
		c-0.1,0-0.3,0-0.4,0c-0.7,0-1.3,0-2-0.1c-4.3-0.4-8-3.2-9.5-7.2c-1.5-4.1-0.6-8.7,2.5-11.9c3.8-4,9.5-5.7,16.5-4.9
		c3.2,0.4,6.3,1.1,9.2,2.3l1.2,0.5l-1.8,4.4L34,83.6C33.9,83.5,20.2,78,13.5,85c-1.8,1.8-2.4,4.5-1.5,6.9c0.8,2.4,3,4,5.6,4.2
		c0.6,0.1,1.3,0.1,1.9,0.1c4.9-0.1,9.5-1.9,13.2-5.1c3.2-2.7,6.2-5.5,9-8.5c-0.3-0.4-0.6-0.7-0.9-1.1l0,0c-0.1-0.1-0.3-0.3-0.4-0.4
		c-0.3-0.3-0.7-0.8-1.2-1.3c-0.9-1-2.3-2.7-3.8-4.6c-5.7-6.9-4.7-17.1,2.2-22.8c5.3-4.8,13.3-5,18.8-0.4c5.7,4.3,7.5,12,4.2,18.4
		c-1.9,3.5-4.9,6.3-8.5,7.8l-1.2,0.6l-2-4.3l1.2-0.6c2.7-1.1,4.9-3.1,6.3-5.7c2.4-5.1,0.3-11.2-4.8-13.7c-3.6-1.7-7.9-1.2-11,1.4
		C35.7,60,35,67.3,39,72.3c2.8,3.6,5.1,6.1,5.2,6.2l0,0.1c3.9,4.6,8.2,8.9,12.8,12.7c3.7,3.1,8.4,4.9,13.2,5.1c0.6,0,1.3,0,1.9-0.1
		c2.5-0.2,4.7-1.8,5.6-4.2c0.9-2.4,0.3-5.1-1.5-6.9c-6.7-7.1-20.4-1.5-20.5-1.4l-1.2,0.5l-1.8-4.4l1.2-0.5c2.9-1.2,6.1-1.9,9.2-2.3
		c7-0.8,12.7,0.9,16.5,4.9c3,3.1,4,7.8,2.5,11.9c-1.5,4.1-5.2,6.9-9.5,7.3c-0.6,0.1-1.3,0.1-2,0.1C70.5,101,70.3,101,70.2,101z
		 M63.4,53.4c-2.2-1.7-3.5-4.2-3.6-6.9l-0.1-1.1l1-0.4c2.4-1.3,5.2-1.4,7.7-0.3c4.7,2.1,6.7,8.3,6.7,8.5l0.5,1.6l-1.6,0.4
		c-1.2,0.3-2.4,0.4-3.6,0.4C67.9,55.5,65.5,54.8,63.4,53.4L63.4,53.4z M63,47.3c0.2,1.4,1,2.7,2.2,3.6c1.9,1.2,4.2,1.6,6.4,1.4
		c-0.9-2.1-2.4-3.8-4.4-4.9c-0.7-0.3-1.4-0.4-2.1-0.4C64.4,46.9,63.7,47.1,63,47.3L63,47.3z M20.3,55l-1.6-0.4l0.5-1.6
		c0.1-0.3,2-6.4,6.7-8.5c2.5-1.1,5.3-0.9,7.7,0.3l1,0.4l-0.1,1.1c-0.1,2.7-1.4,5.3-3.6,6.9c-2.1,1.4-4.6,2.1-7.1,2
		C22.7,55.4,21.5,55.3,20.3,55z M27.1,47.4c-2,1.1-3.5,2.8-4.4,4.9c2.2,0.3,4.5-0.2,6.4-1.4c1.2-0.9,1.9-2.2,2.2-3.6
		c-0.7-0.2-1.4-0.4-2.1-0.4C28.5,46.9,27.8,47.1,27.1,47.4L27.1,47.4z M38.1,36.8c0.1-5,4.2-9,9.1-8.9c5,0.1,9,4.1,8.9,9.1
		c-0.1,4.9-4.1,8.9-9,8.9C42.2,45.9,38.1,41.8,38.1,36.8L38.1,36.8z M42.4,36.8c0,2.6,2.2,4.7,4.8,4.7s4.7-2.2,4.7-4.8
		c0-2.6-2.1-4.7-4.7-4.7C44.5,32,42.4,34.1,42.4,36.8L42.4,36.8z M62.2,36.2l-0.8-0.8l0.4-1c1-2.5,3.1-4.5,5.7-5.3
		c5-1.4,10.3,2,10.6,2.1l1.4,0.9l-1,1.3c-0.2,0.2-4,5.3-9.2,5.7c-0.2,0-0.4,0-0.6,0C66.3,39.2,63.9,38.1,62.2,36.2L62.2,36.2z
		 M68.4,32.2c-1.4,0.4-2.6,1.4-3.3,2.7c1.1,0.9,2.5,1.4,4,1.4l0,0c2.2-0.4,4.3-1.5,5.8-3.1c-1.5-0.7-3.1-1.1-4.7-1.2
		C69.6,31.9,69,32,68.4,32.2L68.4,32.2z M25,39.2c-5.2-0.4-9-5.4-9.2-5.7l-1-1.3l1.4-0.9c0.2-0.1,5.6-3.6,10.6-2.1
		c2.6,0.8,4.7,2.8,5.7,5.3l0.4,1l-0.7,0.8c-1.7,1.9-4.1,3-6.6,3C25.4,39.3,25.2,39.2,25,39.2z M19.4,33.1c1.5,1.7,3.6,2.8,5.8,3.1
		c1.4,0.1,2.9-0.4,4-1.4c-0.7-1.3-1.9-2.2-3.3-2.7c-0.6-0.2-1.2-0.2-1.8-0.2C22.5,32,20.9,32.4,19.4,33.1L19.4,33.1z M57.5,26.9
		l-1.1-0.1l-0.3-1c-0.8-2.6-0.5-5.4,1-7.8c2.9-4.4,9.2-5.2,9.4-5.2l1.6-0.2l0.1,1.6c0,0.3,0.3,6.7-3.4,10.3
		c-1.7,1.6-3.9,2.5-6.3,2.4C58.3,26.9,57.9,26.9,57.5,26.9L57.5,26.9z M59.7,19.7c-0.8,1.2-1.1,2.7-0.8,4.2c1.4,0,2.9-0.5,3.9-1.5
		c1.5-1.7,2.3-3.9,2.4-6.1C63.1,16.7,61.1,17.9,59.7,19.7L59.7,19.7z M29.4,24.5C25.7,20.9,26,14.4,26,14.2l0.1-1.6l1.6,0.2
		c0.3,0,6.6,0.9,9.4,5.2c1.5,2.3,1.8,5.1,1,7.8l-0.3,1l-1.1,0.1c-0.4,0-0.7,0.1-1.1,0.1C33.3,27,31.1,26.1,29.4,24.5z M31.5,22.3
		c1.1,1,2.5,1.5,3.9,1.5c0.3-1.4,0-2.9-0.8-4.2c-1.4-1.8-3.4-3-5.6-3.5C29.2,18.4,30,20.6,31.5,22.3z M46.3,22.7
		c-2.3-1.5-3.8-3.9-4.2-6.6c-0.6-5.2,3.7-10,3.9-10.2l1.1-1.2l1.1,1.2c0.2,0.2,4.5,4.9,3.9,10.2c-0.3,2.7-1.8,5.1-4.2,6.6l-0.9,0.6
		L46.3,22.7z M45.1,15.8c0.2,1.4,0.9,2.8,2,3.7c1.1-0.9,1.8-2.3,2-3.7c0-2.3-0.7-4.5-2-6.3C45.8,11.3,45.1,13.5,45.1,15.8z"/>
	<g>
		<path d="M128.5,100.2c-3.9,0-7.2-0.9-9.9-2.6c-2.7-1.7-4.8-4.1-6.2-7.2c-1.4-3-2.1-6.4-2.1-10.3V25.5c0-3.8,0.7-7.2,2.2-10.2
			c1.4-3,3.5-5.4,6.3-7.2c2.7-1.8,6-2.6,9.7-2.6c2.8,0,5.3,0.5,7.6,1.6c2.2,1,4.1,2.5,5.7,4.3s2.8,3.9,3.6,6.4
			c0.8,2.4,1.3,5,1.3,7.8v12.8h-12.8V25.5c0-1.9-0.4-3.6-1.2-4.9s-2.1-1.9-4-1.9c-1.7,0-2.9,0.7-3.7,2c-0.8,1.4-1.1,2.9-1.1,4.8
			v54.6c0,1.9,0.4,3.4,1.2,4.8c0.8,1.3,2,2,3.6,2c1.9,0,3.2-0.6,4-1.9s1.2-2.9,1.2-4.9V67.4h12.8v12.8c0,3.8-0.7,7.2-2.2,10.2
			c-1.5,3-3.6,5.4-6.3,7.2C135.4,99.4,132.2,100.2,128.5,100.2z"/>
		<path d="M181.4,99.2V6.5H195c8.2,0,14.2,2.3,18,6.8c3.9,4.5,5.8,11.2,5.8,20c0,5.2-0.9,9.7-2.8,13.5c-1.8,3.8-4,6.6-6.6,8.4
			l9.3,44.1h-13.6l-7.7-39.1H195v39.1H181.4z M195,47.5c2.5,0,4.5-0.6,6-1.7c1.5-1.1,2.5-2.7,3.1-4.8c0.6-2.1,1-4.5,1-7.3
			c0-4.4-0.7-7.8-2.2-10.2c-1.4-2.4-4.1-3.6-7.9-3.6L195,47.5L195,47.5z"/>
		<path d="M251.6,99.2V6.5h31.2v14h-17.5v25h12.6v13.6h-12.6v26.1h17.5v14L251.6,99.2L251.6,99.2z"/>
		<path d="M318.1,99.2V6.5h31.2v14h-17.5v25h12.6v13.6h-12.6v26.1h17.5v14L318.1,99.2L318.1,99.2z"/>
		<path d="M384.6,99.2V6.5h13.9c4.4,0,8.1,0.7,11.1,2.1c3,1.4,5.5,3.9,7.3,7.3c1.8,3.4,3.2,8.2,4,14.2c0.8,6,1.2,13.6,1.2,22.8
			c0,9.2-0.4,16.8-1.2,22.8c-0.8,6-2.2,10.7-4,14.1c-1.9,3.4-4.3,5.9-7.3,7.3c-3,1.4-6.7,2.1-11.1,2.1L384.6,99.2L384.6,99.2z
			 M398.3,85.6c3.4,0,5.7-1.3,7.1-4c1.4-2.6,2.2-6.4,2.5-11.4c0.3-4.9,0.4-10.8,0.4-17.5c0-6.9-0.1-12.7-0.4-17.6
			c-0.3-4.9-1.1-8.6-2.6-11.2s-3.8-3.9-7.1-3.9V85.6z"/>
		<path d="M467.5,99.2V59.7L453.7,6.5H467l6.7,29.6l0.4,4h0.4l0.4-4l6.7-29.6H495l-13.9,53.3v39.5H467.5z"/>
	</g>
</g>
</svg>
